<svg xmlns="http://www.w3.org/2000/svg" viewBox="0 0 365.12 99.98"><title>geek-team-logo</title><g id="Layer_2" data-name="Layer 2"><g id="Layer_1-2" data-name="Layer 1"><path d="M31.32,40.59h8.1V51a16.82,16.82,0,0,1-5.13.54c-9.9,0-17.19-6.57-17.19-17.91,0-12.33,8.28-17.55,18.27-17.55,6.84,0,11,1.08,14.4,2.61L53,5.67c-3.15-1.53-9.36-3-17.55-3C15.84,2.7.09,13.41,0,34.56,0,43.2,3,51,8.64,56.43c5.49,5.22,13.59,8.19,25.47,8.19a73.09,73.09,0,0,0,21-3.42V28H31.32Z"/><path d="M120.15,18.72c-10.86,0-17.44,5.92-20.62,12.91-2.61-7.52-8.65-12.91-18.89-12.91-16.29,0-23,13.32-23,23.58,0,14,8.82,22.59,24.39,22.59A45.77,45.77,0,0,0,98.64,62.1L96.57,51.3A39.09,39.09,0,0,1,84.51,53c-5.76,0-10.89-2-11.43-5.49H97.66c2,10.9,10.4,17.37,23.93,17.37a45.77,45.77,0,0,0,16.56-2.79l-2.07-10.8A39.09,39.09,0,0,1,124,53c-5.76,0-10.89-2-11.43-5.49H140a28.77,28.77,0,0,0,.63-6.12C140.58,29.25,134.46,18.72,120.15,18.72ZM72.9,36.54c.27-2.79,2.16-7.2,6.93-7.2,5.13,0,6.3,4.68,6.3,7.2Zm39.51,0c.27-2.79,2.16-7.2,6.93-7.2,5.13,0,6.3,4.68,6.3,7.2Z"/><path d="M190.25,19.71H170.91l-7.29,12.6c-1,1.62-1.89,3.42-2.88,5.4h-.18V0H144.27V64h16.29V51.39l3.24-4.32L172.52,64h20L175,37.53Z"/><polygon points="228.69 3.33 183.78 3.33 183.78 9.99 202.23 9.99 202.23 63.99 210.15 63.99 210.15 9.99 228.69 9.99 228.69 3.33"/><path d="M242.45,19.53c-12.69,0-20.42,10.26-20.42,23.4S230,65,243.44,65A35.48,35.48,0,0,0,258,62.19l-1.44-5.67a28.33,28.33,0,0,1-12.06,2.25c-8,0-14.76-4.41-14.94-15.12h30.6a19.31,19.31,0,0,0,.27-3.69C260.45,32,256.76,19.53,242.45,19.53ZM229.67,38c.63-5.49,4.05-12.78,12.15-12.78,8.91,0,11.07,7.83,11,12.78Z"/><path d="M297.26,37.26c0-8.64-3.24-17.73-16.56-17.73a28.21,28.21,0,0,0-14.4,3.78l1.8,5.31a21,21,0,0,1,11.43-3.24c8.91-.09,9.9,6.48,9.9,10v.9c-16.83-.09-26.19,5.67-26.19,16.2,0,6.3,4.5,12.51,13.32,12.51a16.22,16.22,0,0,0,13.32-6.48h.27l.63,5.49h7.11a73.09,73.09,0,0,1-.63-10.44Zm-7.65,12.06a8.94,8.94,0,0,1-.36,2.52,11,11,0,0,1-10.71,7.29c-4,0-7.38-2.34-7.38-7.56,0-8.46,9.81-10,18.45-9.81Z"/><path d="M350.72,19.53a14.61,14.61,0,0,0-9.54,3.06,17.19,17.19,0,0,0-4.95,5.67h-.18a12.85,12.85,0,0,0-12.24-8.73c-7.29,0-11.34,3.87-13.77,8h-.27l-.36-7.11h-6.93c.18,3.6.36,7.2.36,11.79V64h7.74V37.8a10.59,10.59,0,0,1,.63-3.87c1.26-4,5-7.92,9.81-7.92,6,0,9.09,4.95,9.09,11.88V64h7.74V37.08a13.52,13.52,0,0,1,.63-4c1.44-3.78,4.86-7.11,9.45-7.11,6.3,0,9.45,4.95,9.45,13.41V64h7.74V38.43C365.12,23.31,356.57,19.53,350.72,19.53Z"/><path d="M57.69,76.41V89c7.72,5,21.52,10.91,41.49,11,19.77,0,33.57-6,41.4-11V76.41c-9.37,5-23.38,9.26-41.4,9.26C80.86,85.67,67,81.45,57.69,76.41Z"/></g></g></svg>